# WaveFront *.obj file (generated by CINEMA 4D)

mtllib ./Clam.mtl

v -0 -6.54424667358398 13.74929046630859
v 14.93460845947266 -6.7746729850769 3.00083041191101
v 0.13849666714668 -12.87394428253174 -0.94353818893433
v 9.52183437347412 -7.3878378868103 -10.44999980926514
v -0.07497986406088 -9.78901863098145 -13.74929046630859
v -14.93460845947266 -6.7746729850769 3.00083041191101
v -8.03649997711182 -10.703537940979 2.91358351707458
v -9.48205471038818 -7.40331506729126 -10.42474842071533
v 6.290207862854 -10.91653823852539 1.62049925327301
v -14.93460845947266 -1.44460380077362 4.10197305679321
v -0.13849666714668 7.46262979507446 6.01936817169189
v -9.52183437347412 8.95446681976318 -4.85466527938843
v 0.07497986406088 12.87394428253174 -5.98986768722534
v 14.93460845947266 -1.44460380077362 4.10197305679321
v 8.03649997711182 3.95354056358337 7.00203227996826
v 9.48205471038818 8.9512186050415 -4.82522678375244
v -6.290207862854 4.34444856643677 6.84560823440552
# 17 vertices

vn -0.05732766538858 -0.91708755493164 0.39454266428947
vn 0 0 0
vn 0.20573200285435 0.97180044651032 -0.11523127555847
vn 0.44587680697441 -0.88421708345413 -0.13911850750446
vn 0.12575373053551 -0.91067975759506 0.39350783824921
vn -0.01346405874938 0.99910390377045 -0.04012670367956
vn -0.40052673220634 -0.71592438220978 0.57186585664749
vn -0.30593132972717 -0.93138712644577 -0.19729189574718
vn 0.01412466634065 0.99905753135681 -0.04104360193014
vn 0.32134926319122 -0.82538157701492 0.46419817209244
vn 0.30926817655563 -0.92333966493607 -0.22758957743645
vn -0.20402087271214 0.97228616476059 -0.11417131870985
vn -0.49013888835907 -0.85703253746033 -0.1589310914278
vn -0.34390982985497 -0.91417646408081 -0.21449343860149
vn 0.36266782879829 -0.91614592075348 -0.17073005437851
vn 0.10200916975737 0.48142519593239 0.87053084373474
vn -0.20573176443577 -0.69723850488663 -0.68668252229691
vn -0.59249937534332 0.6801689863205 0.43164187669754
vn -0.12575387954712 0.47838360071182 0.8691001534462
vn 0.20504261553288 -0.69782471656799 -0.68629306554794
vn 0.49268016219139 0.17121188342571 0.85320144891739
vn 0.30957522988319 0.86173379421234 0.40196767449379
vn -0.20541787147522 -0.69737595319748 -0.68663692474365
vn -0.45348998904228 0.2754440009594 0.84763050079346
vn -0.30926820635796 0.86906796693802 0.38610106706619
vn 0.20402082800865 -0.69827193021774 -0.68614268302917
vn 0.66412335634232 0.65610957145691 0.35841366648674
vn 0.32223165035248 0.86092925071716 0.39365929365158
vn -0.36266785860062 0.82853364944458 0.42661932110786
# 29 normals

vt 0.05644196271896 0.68392354249954 0
vt 0.05759239196777 0.68195533752441 0
vt 0.05642214417458 0.68125474452972 0
vt 0.10879583656788 0.63301753997803 0
vt 0.14212058484554 0.95439928770065 0
vt 0.14213012158871 0.95883476734161 0
vt 0.14332593977451 0.95829856395721 0
vt 0.10216420143843 0.28430151939392 0
vt 0.05507889389992 0.67952799797058 0
vt 0.05430406332016 0.68197119235992 0
vt 0.05554151535034 0.681720495224 0
vt 0.14022208750248 0.95613300800323 0
vt 0.14091014862061 0.95830261707306 0
vt 0.05857986211777 0.68197119235992 0
vt 0.05779930949211 0.67953258752823 0
vt 0.05645269155502 0.67892873287201 0
vt 0.14401909708977 0.95613300800323 0
vt 0.10590545088053 0.28448069095612 0
vt 0.11253706365824 0.63319671154022 0
vt 0.11253692954779 0.63319623470306 0
vt 0.11253689229488 0.63319623470306 0
vt 0.0520039498806 0.68912416696548 0
vt 0.05315437912941 0.68721735477448 0
vt 0.05198413133621 0.68658000230789 0
vt 0.53921616077423 0.09834730625153 0
vt 0.1388676315546 0.95296496152878 0
vt 0.13885809481144 0.94978100061417 0
vt 0.13766224682331 0.9499688744545 0
vt 0.68211758136749 0.8073388338089 0
vt 0.05336701869965 0.68616795539856 0
vt 0.0541418492794 0.68454110622406 0
vt 0.05290439724922 0.68404275178909 0
vt 0.72531092166901 0.35435223579407 0
vt 0.0511035323143 0.68714636564255 0
vt 0.53921627998352 0.09834778308868 0
vt 0.13682506978512 0.95122569799423 0
vt 0.13613700866699 0.94978100061417 0
vt 0.13492657244205 0.95278185606003 0
vt 0.88458603620529 0.82733422517776 0
vt 0.0541418492794 0.68819785118103 0
vt 0.53921610116959 0.09834706783295 0
vt 0.05085352063179 0.68401432037354 0
vt 0.05064660310745 0.68616259098053 0
vt 0.05199322104454 0.68637418746948 0
vt 0.72531098127365 0.35435211658478 0
vt 0.13696911931038 0.95140886306763 0
vt 0.68338936567307 0.80745267868042 0
vt 0.04986608028412 0.68819785118103 0
vt 0.05202379822731 0.68419283628464 0
vt 0.72658258676529 0.35446560382843 0
vt 0.14007803797722 0.94996410608292 0
vt 0.6821174621582 0.80733859539032 0
vt 0.04986608028412 0.68454110622406 0
vt 0.72531068325043 0.35435152053833 0
# 54 texture coordinates

o Clam
usemtl Mat
f 1/1/1 7/2/1 3/3/1
f 1/5/3 5/6/3 8/7/3
f 4/9/4 2/10/4 9/11/4
f 1/1/5 3/3/5 9/11/5
f 2/12/6 4/13/6 1/5/6
f 1/1/7 6/14/7 7/2/7
f 7/2/8 8/15/8 5/16/8
f 8/7/9 6/17/9 1/5/9
f 2/10/10 1/1/10 9/11/10
f 3/3/11 5/16/11 4/9/11
f 1/5/12 4/13/12 5/6/12
f 6/14/13 8/15/13 7/2/13
f 7/2/14 5/16/14 3/3/14
f 3/3/15 4/9/15 9/11/15
f 1/22/16 15/23/16 11/24/16
f 1/26/17 13/27/17 16/28/17
f 12/30/18 10/31/18 17/32/18
f 1/22/19 11/24/19 17/34/19
f 10/36/20 12/37/20 1/38/20
f 1/22/21 14/40/21 15/23/21
f 15/42/22 16/43/22 13/44/22
f 16/28/23 14/46/23 1/26/23
f 10/48/24 1/22/24 17/34/24
f 11/49/25 13/44/25 12/30/25
f 1/26/26 12/51/26 13/27/26
f 14/53/27 16/43/27 15/42/27
f 15/42/28 13/44/28 11/49/28
f 11/49/29 12/30/29 17/32/29

