# WaveFront *.obj file (generated by CINEMA 4D)

mtllib ./Crab.mtl

v 6.35880613327026 12.40123748779297 -18.67112350463867
v 6.76570606231689 25.62041664123535 -18.26422309875488
v 8.95880603790283 12.40123748779297 -18.67112350463867
v 8.55190658569336 25.62041664123535 -18.26422309875488
v 8.95880603790283 12.40123748779297 -16.07112312316895
v 8.55190658569336 25.62041664123535 -16.47802352905273
v 6.35880613327026 12.40123748779297 -16.07112312316895
v 6.76570606231689 25.62041664123535 -16.47802352905273
v -7.3179235458374 12.40123748779297 -20.35613441467285
v -6.91102361679077 25.62041664123535 -19.94923400878906
v -4.71792364120483 12.40123748779297 -20.35613441467285
v -5.12482357025146 25.62041664123535 -19.94923400878906
v -4.71792364120483 12.40123748779297 -17.75613403320312
v -5.12482357025146 25.62041664123535 -18.16303443908691
v -7.3179235458374 12.40123748779297 -17.75613403320312
v -6.91102361679077 25.62041664123535 -18.16303443908691
v -1.47024118900299 14.38022708892822 -25.49723052978516
v -4.01897001266479 -8.10384845733643 -4.35212135314941
v 34.71268463134766 9.94197177886963 18.51884269714355
v 24.60198020935059 8.31612968444824 -16.87355804443359
v -25.83775520324707 6.62899732589722 -15.50711727142334
v -34.71268463134766 12.79054927825928 8.74421691894531
v -2.47448635101318 9.26241207122803 47.94016647338867
v 19.13336944580078 21.38614845275879 10.75889492034912
v -25.58625602722168 -0.61406677961349 18.2006778717041
v 14.77434349060059 -2.74898934364319 22.6681957244873
v 27.9637565612793 1.22084021568298 -1.12461340427399
v -31.54531097412109 1.68678426742554 1.7845207452774
v -27.98380088806152 -0.89387118816376 -21.46683692932129
v -21.07220840454102 -3.2059109210968 -36.49829483032227
v -13.64934349060059 4.38779020309448 -9.55284595489502
v -24.30334663391113 0.13621240854263 -31.38811302185059
v -25.55453300476074 -6.18592214584351 -47.69162368774414
v -6.74486446380615 1.88976573944092 -27.94777297973633
v -14.6250057220459 2.83731198310852 -24.43391418457031
v -17.25307846069336 -24.49204444885254 28.53427886962891
v -26.49882125854492 3.81163859367371 16.71610069274902
v -33.97947692871094 -23.26620483398438 4.10158681869507
v -23.92575836181641 -1.19085907936096 14.55490303039551
v -27.0593376159668 -25.62041664123535 16.86347007751465
v -22.15018653869629 -1.37503278255463 17.09515571594238
v -30.16920852661133 5.91498470306396 3.37915444374084
v -27.52226829528809 1.67753839492798 2.55725884437561
v -26.91795349121094 1.50942969322205 5.59798240661621
v -15.12620544433594 0.04603599384427 26.22969055175781
v -12.40236282348633 -0.24848076701164 27.69030570983887
v -16.38089752197266 4.91521167755127 29.55133056640625
v -13.65705490112305 4.62069511413574 31.0119457244873
v -29.56489372253418 5.74687576293945 6.41987800598145
v -24.7232494354248 3.62746477127075 19.2563533782959
v 17.75322151184082 -22.33636093139648 27.43916893005371
v 27.56777191162109 7.27800273895264 16.71610069274902
v 32.76424407958984 -22.93432807922363 4.10158681869507
v 24.99470710754395 2.27550530433655 14.55490303039551
v 28.12828636169434 -22.154052734375 16.86347007751465
v 23.21913528442383 2.09133148193359 17.09515571594238
v 28.95397758483887 6.24686002731323 3.37915444374084
v 26.30703544616699 2.00941395759583 2.55725884437561
v 25.70272064208984 1.8413051366806 5.59798240661621
v 15.62634754180908 2.20172023773193 25.13458061218262
v 12.90250492095947 1.90720343589783 26.59519577026367
v 16.88104057312012 7.07089614868164 28.45622062683105
v 14.15719795227051 6.77637910842896 29.91683578491211
v 28.34966278076172 6.07875156402588 6.41987800598145
v 25.79219818115234 7.09382915496826 19.2563533782959
v 22.87936782836914 0.31188699603081 -21.71538162231445
v 15.96777534484863 -2.00015258789062 -36.7468376159668
v 8.54491138458252 5.59354877471924 -9.80138969421387
v 19.19891357421875 1.34197056293488 -31.63665771484375
v 20.45009994506836 -4.98016405105591 -47.94016647338867
v 1.64043200016022 3.09552383422852 -28.19631767272949
v 9.52057266235352 4.0430703163147 -24.68245887756348
# 72 vertices

vn 0 0.03076649084687 -0.99952661991119
vn 0.99952661991119 0.030766421929 0
vn 0 0.03076649084687 0.99952661991119
vn -0.99952661991119 0.0307664591819 0
vn 0 1 0
vn 0.99952661991119 0.0307664591819 0
vn -0.41445824503899 0.83426243066788 -0.36363518238068
vn 0 0 0
vn 0.64600098133087 0.73150086402893 -0.21814937889576
vn -0.15304212272167 0.98284274339676 -0.10294806957245
vn 0.35780683159828 0.80638056993484 0.47087642550468
vn 0.32099747657776 0.87911939620972 -0.3522921204567
vn -0.94227838516235 -0.06262288987637 -0.3289221227169
vn 0.29180592298508 -0.8471947312355 -0.44397121667862
vn 0.01067985687405 -0.80247861146927 -0.59658527374268
vn -0.16179609298706 0.96206325292587 0.21967335045338
vn -0.07832714915276 -0.96611452102661 0.24594214558601
vn -0.00133913313039 -0.60490196943283 -0.79629880189896
vn -0.77331078052521 -0.08307611197233 0.62856090068817
vn 0.50694227218628 -0.59141033887863 0.6270911693573
vn -0.33700329065323 -0.94145429134369 -0.0096200928092
vn 0.55414915084839 -0.81460696458817 0.17127239704132
vn -0.09044306725264 -0.92199838161468 0.37648248672485
vn 0.95389860868454 -0.13875141739845 -0.26613053679466
vn 0.28033909201622 -0.95988929271698 -0.00475305598229
vn -0.38338273763657 -0.84685289859772 -0.36858895421028
vn -0.8735853433609 -0.4117788374424 0.25939700007439
vn -0.1445292532444 -0.10064733028412 0.98436856269836
vn -0.81885761022568 0.01846724003553 0.57369953393936
vn 0.63374823331833 0.00819635018706 -0.77349591255188
vn -0.63374853134155 0.00819639489055 -0.77349573373795
vn -0.50463390350342 -0.11035936325788 0.8562508225441
vn 0.8188573718071 0.01846718229353 0.57369989156723
vn 0.47388949990273 -0.01639483496547 0.88043171167374
vn 0.27815160155296 0.01254122331738 -0.96045529842377
vn -0.4587094783783 -0.12241853773594 -0.8801132440567
vn -0.94501847028732 -0.25714594125748 -0.20202991366386
vn 0.91328996419907 0.04110192134976 -0.40523084998131
vn -0.80402851104736 -0.15731854736805 -0.57340133190155
vn -0.83354920148849 -0.14825229346752 0.53218132257462
vn 0.97085356712341 0.13172402977943 0.20023033022881
vn 0.39682012796402 0.84512960910797 -0.35817554593086
vn -0.7243714928627 0.6596941947937 -0.20022383332253
vn -0.07554125785828 0.90712630748749 -0.41402345895767
vn -0.3282243013382 0.94430202245712 -0.02371715940535
vn 0.17912557721138 -0.96103733778 0.21052613854408
vn -0.21403977274895 0.95400828123093 -0.20989315211773
vn -0.6455112695694 0.76284623146057 -0.03715967014432
vn -0.47388949990273 -0.01639483496547 0.88043171167374
vn -0.27815172076225 0.01254125870764 -0.96045529842377
vn 0.4587094783783 -0.1224185153842 -0.8801132440567
vn 0.94501847028732 -0.25714594125748 -0.20202991366386
vn -0.91329008340836 0.04110192134976 -0.40523064136505
vn 0.80402851104736 -0.15731854736805 -0.57340133190155
vn 0.83354932069778 -0.14825229346752 0.53218114376068
vn -0.97085350751877 0.13172407448292 0.20023034512997
vn 0.14452932775021 -0.1006473377347 0.98436850309372
vn 0.50463390350342 -0.11035936325788 0.8562508225441
vn -0.39682033658028 0.84512948989868 -0.35817557573318
vn 0.7243714928627 0.65969407558441 -0.20022386312485
vn -0.17912557721138 -0.96103733778 0.21052613854408
vn 0.07554126530886 0.90712624788284 -0.41402354836464
vn 0.32822436094284 0.94430202245712 -0.02371718361974
vn 0.21403980255127 0.95400828123093 -0.20989318192005
vn 0.64551115036011 0.76284629106522 -0.03715972974896
# 65 normals

vt 0.04951191693544 0.85576164722443 0
vt 0.04951191693544 0.8671875 0
vt 0.06093776226044 0.8671875 0
vt 0.06093776226044 0.85576164722443 0
vt 0.33277571201324 0.86602187156677 0
vt 0.33277589082718 0.86602139472961 0
vt 0.33277505636215 0.86602032184601 0
vt 0.33277475833893 0.86602067947388 0
vt 0.33277362585068 0.86601948738098 0
vt 0.33276718854904 0.86599379777908 0
vt 0.33276689052582 0.86599290370941 0
vt 0.332763671875 0.86599290370941 0
vt 0.33276361227036 0.86599379777908 0
vt 0.33276110887527 0.86599290370941 0
vt 0.33277308940887 0.86600387096405 0
vt 0.33277332782745 0.86600422859192 0
vt 0.33277571201324 0.86600291728973 0
vt 0.42847883701324 0.87576806545258 0
vt 0.42847883701324 0.87576854228973 0
vt 0.42848005890846 0.87576901912689 0
vt 0.33277693390846 0.86600339412689 0
vt 0.42849308252335 0.87579929828644 0
vt 0.42849141359329 0.87579840421677 0
vt 0.42849010229111 0.87579840421677 0
vt 0.33278697729111 0.86603277921677 0
vt 0.3327870965004 0.86603367328644 0
vt 0.33278375864029 0.86603277921677 0
vt 0.33277088403702 0.86599034070969 0
vt 0.3327704668045 0.86598950624466 0
vt 0.33276909589767 0.86598950624466 0
vt 0.42847207188606 0.87575554847717 0
vt 0.42847171425819 0.87575513124466 0
vt 0.428471326828 0.87575513124466 0
vt 0.332768201828 0.86598950624466 0
vt 0.42849397659302 0.8757928609848 0
vt 0.42849379777908 0.87579196691513 0
vt 0.42849212884903 0.87579196691513 0
vt 0.33278900384903 0.86602634191513 0
vt 0.42518356442451 0.87251991033554 0
vt 0.42518371343613 0.87251830101013 0
vt 0.42518186569214 0.8725209236145 0
vt 0.42847245931625 0.87575596570969 0
vt 0.42847222089767 0.87575513124466 0
vt 0.33276894688606 0.86598992347717 0
vt 0.42518272995949 0.87252104282379 0
vt 0.42518347501755 0.87252110242844 0
vt 0.42847192287445 0.87575554847717 0
vt 0.42849266529083 0.87579840421677 0
vt 0.33278828859329 0.86603277921677 0
vt 0.33276879787445 0.86598992347717 0
vt 0.42848116159439 0.87576985359192 0
vt 0.16808384656906 0.86048418283463 0
vt 0.16807401180267 0.86046266555786 0
vt 0.16808789968491 0.86046749353409 0
vt 0.16881087422371 0.8612100481987 0
vt 0.16882532835007 0.86120069026947 0
vt 0.16881185770035 0.86117941141129 0
vt 0.16856426000595 0.86116355657578 0
vt 0.16856941580772 0.86116367578506 0
vt 0.16856667399406 0.86116367578506 0
vt 0.32603532075882 0.87357449531555 0
vt 0.32596397399902 0.87352281808853 0
vt 0.3260395526886 0.87353014945984 0
vt 0.16875594854355 0.86159420013428 0
vt 0.16874325275421 0.86148500442505 0
vt 0.16874834895134 0.86148500442505 0
vt 0.16681981086731 0.86057198047638 0
vt 0.16680571436882 0.86058259010315 0
vt 0.16680929064751 0.86057025194168 0
vt 0.16864731907845 0.86299306154251 0
vt 0.16862896084785 0.86286205053329 0
vt 0.16863140463829 0.86286211013794 0
vt 0.16880139708519 0.86266660690308 0
vt 0.16879579424858 0.86264324188232 0
vt 0.16881027817726 0.86265259981155 0
vt 0.32599884271622 0.87365984916687 0
vt 0.3260395526886 0.8737006187439 0
vt 0.326003074646 0.87370419502258 0
vt 0.16818684339523 0.86086004972458 0
vt 0.16816028952599 0.86084520816803 0
vt 0.1681852042675 0.86084276437759 0
vt 0.16863822937012 0.86090755462646 0
vt 0.16861781477928 0.86089473962784 0
vt 0.16863209009171 0.86089473962784 0
vt 0.16882830858231 0.86202359199524 0
vt 0.16879406571388 0.86200165748596 0
vt 0.16880854964256 0.86199229955673 0
vt 0.35216414928436 0.85552823543549 0
vt 0.35208171606064 0.85557401180267 0
vt 0.35219514369965 0.85557854175568 0
vt 0.1465490013361 0.86598527431488 0
vt 0.14691203832626 0.86599290370941 0
vt 0.14653953909874 0.86561810970306 0
vt 0.12645287811756 0.86082065105438 0
vt 0.12650722265244 0.86080408096313 0
vt 0.1263570189476 0.86095637083054 0
vt 0.13494825363159 0.86574351787567 0
vt 0.13457931578159 0.86599600315094 0
vt 0.1345761269331 0.86602222919464 0
vt 0.13158237934113 0.86320906877518 0
vt 0.13177371025085 0.86322498321533 0
vt 0.13156980276108 0.86316978931427 0
vt 0.1264979839325 0.86277610063553 0
vt 0.12663018703461 0.86303520202637 0
vt 0.12663346529007 0.86280113458633 0
vt 0.12655204534531 0.86066472530365 0
vt 0.16681623458862 0.86058431863785 0
# 107 texture coordinates

o Crab
usemtl Mat
f 1/1/1 2/2/1 4/3/1 3/4/1
f 3/1/2 4/2/2 6/3/2 5/4/2
f 5/1/3 6/2/3 8/3/3 7/4/3
f 7/1/4 8/2/4 2/3/4 1/4/4
f 2/1/5 8/2/5 6/3/5 4/4/5
f 9/1/1 10/2/1 12/3/1 11/4/1
f 11/1/6 12/2/6 14/3/6 13/4/6
f 13/1/3 14/2/3 16/3/3 15/4/3
f 15/1/4 16/2/4 10/3/4 9/4/4
f 10/1/5 16/2/5 14/3/5 12/4/5
f 21/5/7 22/6/7 17/7/7
f 24/8/9 19/7/9 20/9/9
f 17/10/10 22/11/10 24/12/10
f 24/13/11 23/12/11 19/14/11
f 17/15/12 24/16/12 20/17/12
f 22/18/13 21/19/13 28/20/13
f 20/22/14 27/23/14 18/24/14
f 20/26/15 21/25/15 17/27/15
f 24/28/16 22/29/16 23/30/16
f 26/31/17 25/32/17 18/33/17
f 20/35/18 18/36/18 21/37/18
f 25/39/19 23/40/19 22/41/19
f 19/42/20 23/43/20 26/31/20
f 28/45/21 18/46/21 25/39/21
f 27/47/22 19/42/22 26/31/22
f 23/43/23 25/32/23 26/31/23
f 20/22/24 19/48/24 27/23/24
f 26/31/25 18/33/25 27/47/25
f 21/19/26 18/51/26 28/20/26
f 25/39/27 22/41/27 28/45/27
f 64/52/28 59/53/28 53/54/28
f 37/55/29 40/56/29 50/57/29
f 54/58/30 52/59/30 55/60/30
f 39/58/31 40/60/31 37/59/31
f 65/61/32 56/62/32 55/63/32
f 52/55/33 65/57/33 55/56/33
f 62/64/34 63/65/34 51/66/34
f 58/67/35 57/68/35 53/69/35
f 61/70/36 60/71/36 51/72/36
f 59/73/37 58/74/37 53/75/37
f 60/76/38 62/77/38 51/78/38
f 56/79/39 54/80/39 55/81/39
f 63/82/40 61/83/40 51/84/40
f 57/85/41 64/86/41 53/87/41
f 31/88/42 33/89/42 32/90/42
f 33/91/43 29/92/43 32/93/43
f 35/94/44 34/95/44 30/96/44
f 32/97/45 29/98/45 31/99/45
f 29/100/46 33/101/46 31/102/46
f 30/103/47 31/104/47 34/105/47
f 31/106/48 35/94/48 30/96/48
f 47/64/49 36/66/49 48/65/49
f 43/67/50 38/69/50 42/68/50
f 46/70/51 36/72/51 45/71/51
f 44/73/52 38/75/52 43/74/52
f 45/76/53 36/78/53 47/77/53
f 41/79/54 40/81/54 39/80/54
f 48/82/55 36/84/55 46/83/55
f 42/85/56 38/87/56 49/86/56
f 49/52/57 38/54/57 44/53/57
f 50/61/58 40/63/58 41/62/58
f 68/88/59 69/90/59 70/89/59
f 70/91/60 69/93/60 66/92/60
f 66/100/61 68/102/61 70/101/61
f 72/94/62 67/96/62 71/95/62
f 69/97/63 68/99/63 66/98/63
f 67/103/64 71/105/64 68/104/64
f 68/106/65 67/96/65 72/94/65

