# WaveFront *.obj file (generated by CINEMA 4D)

mtllib ./Shell.mtl

v 16.62942314147949 4.79168033599854 -17.73682403564453
v -22.13996696472168 -8.03450870513916 10.84203147888184
v -16.71455192565918 -10.09682273864746 -4.33026933670044
v 12.8548755645752 11.93682670593262 13.92590999603271
v -11.23652935028076 13.67918491363525 17.01970481872559
v 37.32056045532227 -4.88174200057983 -1.34364926815033
v 14.06000709533691 -6.21519994735718 -13.7459602355957
v -8.718581199646 12.43168354034424 9.09790802001953
v 24.79199409484863 15.87361717224121 1.60471296310425
v 12.49560928344727 -6.75198316574097 17.73682403564453
v 4.02673292160034 -3.90147471427917 14.66874885559082
v -37.32056045532227 -0.53782504796982 0.47012212872505
v 4.31347227096558 -16.06227874755859 -7.47442531585693
v -4.0163140296936 16.06227874755859 -5.65371465682983
v 0.8106980919838 -4.2175989151001 -11.98537826538086
v 21.39258193969727 4.88491630554199 0.65635216236114
# 16 vertices

vn -0.8012735247612 0.49708652496338 -0.33296501636505
vn 0 0 0
vn -0.17002485692501 -0.30058243870735 -0.93847841024399
vn 0.59544122219086 0.14951591193676 0.78936350345612
vn 0.1174628585577 0.90731865167618 0.40370199084282
vn -0.42485600709915 0.90435290336609 0.04053646326065
vn -0.95291674137115 0.00215345295146 -0.30322435498238
vn -0.423663854599 -0.89858317375183 0.11426837742329
vn 0.44970148801804 -0.39536911249161 -0.80090689659119
vn -0.0183592364192 0.99494510889053 0.09872749447823
vn -0.18551759421825 -0.18159492313862 0.96571552753448
vn -0.4598414003849 0.88057285547256 0.11461839824915
vn 0.31852412223816 -0.07377469539642 -0.94503951072693
vn -0.26789557933807 -0.96280926465988 0.03507513180375
vn 0.24952897429466 0.80682533979416 -0.53550744056702
vn 0.13880330324173 0.19530595839024 0.9708703160286
vn 0.64102452993393 0.28575131297112 0.71234387159348
vn 0.14054840803146 0.83231031894684 -0.53619557619095
vn -0.31376782059669 -0.89394110441208 -0.32002973556519
vn 0.35532313585281 -0.72638583183289 -0.58831030130386
vn 0.67106848955154 0.48476293683052 -0.56095629930496
vn -0.24712504446506 -0.40783286094666 -0.8789775967598
vn -0.34970453381538 -0.53516167402267 -0.7689660191536
vn -0.30777585506439 0.95110750198364 0.02585527300835
vn -0.40978097915649 0.34083327651024 0.84611594676971
vn 0.26704385876656 -0.9289528131485 0.25638696551323
vn -0.42629072070122 -0.90410363674164 -0.02954450249672
vn -0.1793737411499 -0.39601430296898 -0.90055412054062
vn -0.03641286119819 -0.93355786800385 0.35657232999802
# 29 normals

vt 0.26304906606674 0.9636253118515 0
vt 0.26266181468964 0.96369194984436 0
vt 0.26091033220291 0.9637086391449 0
vt 0.14152911305428 0.27464330196381 0
vt 0.28909966349602 0.96390897035599 0
vt 0.28987628221512 0.96386671066284 0
vt 0.2914320230484 0.96391677856445 0
vt 0.63258075714111 0.21486866474152 0
vt 0.29512611031532 0.96397578716278 0
vt 0.29609632492065 0.96390008926392 0
vt 0.29629251360893 0.96395909786224 0
vt 0.73454630374908 0.19961428642273 0
vt 0.32334718108177 0.96300995349884 0
vt 0.32697105407715 0.96285450458527 0
vt 0.33058509230614 0.96308755874634 0
vt 0.42580416798592 0.33988738059998 0
vt 0.16661587357521 0.9603933095932 0
vt 0.166554287076 0.96039044857025 0
vt 0.16704918444157 0.96039044857025 0
vt 0.69266778230667 0.11767733097076 0
vt 0.26285544037819 0.96374201774597 0
vt 0.26421540975571 0.96374201774597 0
vt 0.2638281583786 0.96378326416016 0
vt 0.14246645569801 0.27464330196381 0
vt 0.16395698487759 0.96013844013214 0
vt 0.16439016163349 0.96013313531876 0
vt 0.16426630318165 0.96014094352722 0
vt 0.56850874423981 0.51275140047073 0
vt 0.37672057747841 0.96491026878357 0
vt 0.38033437728882 0.96483266353607 0
vt 0.38396006822586 0.96491026878357 0
vt 0.33527639508247 0.96865618228912 0
vt 0.33798941969872 0.96884793043137 0
vt 0.33617743849754 0.96888929605484 0
vt 0.25411975383759 0.20488584041595 0
vt 0.34612995386124 0.96888929605484 0
vt 0.35517984628677 0.9685006737709 0
vt 0.35879388451576 0.96877020597458 0
vt 0.25380730628967 0.20488584041595 0
vt 0.16284412145615 0.96029770374298 0
vt 0.16265866160393 0.96029245853424 0
vt 0.16253469884396 0.96027898788452 0
vt 0.42642906308174 0.33988738059998 0
vt 0.16290572285652 0.96024990081787 0
vt 0.16315343976021 0.96024990081787 0
vt 0.16290572285652 0.96026057004929 0
vt 0.34506252408028 0.96114593744278 0
vt 0.34325057268143 0.96110457181931 0
vt 0.34325057268143 0.96094912290573 0
vt 0.56819629669189 0.51211988925934 0
vt 0.16421596705914 0.96065711975098 0
vt 0.16446313261986 0.96064651012421 0
vt 0.16446313261986 0.96066248416901 0
vt 0.25411975383759 0.20425426959991 0
vt 0.31249359250069 0.96293222904205 0
vt 0.31520661711693 0.96308755874634 0
vt 0.42611661553383 0.33925580978394 0
vt 0.31973311305046 0.96285450458527 0
vt 0.32424819469452 0.96281313896179 0
vt 0.32334718108177 0.96285450458527 0
vt 0.42616403102875 0.33935165405273 0
vt 0.32424819469452 0.96327936649323 0
vt 0.32244610786438 0.96355378627777 0
vt 0.31791961193085 0.96327936649323 0
vt 0.42705395817757 0.33988738059998 0
vt 0.16890385746956 0.96005880832672 0
vt 0.16853293776512 0.96005600690842 0
vt 0.16871839761734 0.96005600690842 0
vt 0.82067799568176 0.62275671958923 0
vt 0.34794187545776 0.96760469675064 0
vt 0.35517984628677 0.96752697229385 0
vt 0.35246682167053 0.96776008605957 0
vt 0.25670486688614 0.31431078910828 0
vt 0.26538354158401 0.96378326416016 0
vt 0.26557719707489 0.96374982595444 0
vt 0.14277890324593 0.27464330196381 0
vt 0.26577082276344 0.9637331366539 0
vt 0.26635381579399 0.96377539634705 0
vt 0.15952771902084 0.95999240875244 0
vt 0.15946613252163 0.95997649431229 0
vt 0.15977478027344 0.95998179912567 0
vt 0.16234923899174 0.96028709411621 0
vt 0.32334718108177 0.96522110700607 0
vt 0.32063418626785 0.96518468856812 0
vt 0.32244610786438 0.96502935886383 0
vt 0.45412203669548 0.10114598274231 0
vt 0.31339466571808 0.96397864818573 0
vt 0.32244610786438 0.96390104293823 0
vt 0.31882065534592 0.9640200138092 0
vt 0.38792639970779 0.20678091049194 0
vt 0.33075144886971 0.96787911653519 0
vt 0.34251430630684 0.96787911653519 0
vt 0.34341537952423 0.96803450584412 0
vt 0.25670486688614 0.31367921829224 0
vt 0.26538354158401 0.96364200115204 0
vt 0.26363208889961 0.9637086391449 0
vt 0.14246645569801 0.27401173114777 0
vt 0.2492863535881 0.97016978263855 0
vt 0.23662082850933 0.97013348340988 0
vt 0.24386033415794 0.97001445293427 0
vt 0.25639241933823 0.31367921829224 0
# 101 texture coordinates

o Shell
usemtl Mat
f 2/1/1 5/2/1 8/3/1
f 1/5/3 7/6/3 15/7/3
f 4/9/4 10/10/4 6/11/4
f 5/13/5 4/14/5 9/15/5
f 16/17/6 15/18/6 11/19/6
f 5/21/7 14/22/7 8/23/7
f 16/25/8 14/26/8 1/27/8
f 7/29/9 1/30/9 6/31/9
f 5/32/10 9/33/10 14/34/10
f 10/36/11 5/37/11 2/38/11
f 16/40/12 1/41/12 15/42/12
f 12/44/13 8/45/13 11/46/13
f 3/47/14 13/48/14 2/49/14
f 12/51/15 11/52/15 3/53/15
f 4/55/16 5/13/16 10/56/16
f 9/58/17 4/59/17 6/60/17
f 9/62/18 1/63/18 14/64/18
f 14/66/19 16/67/19 8/68/19
f 7/70/20 6/71/20 13/72/20
f 1/74/21 9/23/21 6/75/21
f 13/77/22 3/78/22 15/75/22
f 16/79/23 11/80/23 8/81/23
f 11/41/24 15/82/24 3/42/24
f 12/83/25 2/84/25 8/85/25
f 6/87/26 10/88/26 13/89/26
f 12/91/27 3/92/27 2/93/27
f 13/1/28 15/95/28 7/96/28
f 10/98/29 2/99/29 13/100/29

