# Blender v2.92.0 OBJ File: 'untitled.blend'
# www.blender.org
mtllib raft.mtl
o Raft.002_Cylinder.002
v 1.329251 1.211799 -1.783544
v 1.329251 2.215647 -1.071740
v 1.313953 0.435312 -2.430892
v 1.355285 1.244236 -1.774812
v 1.375681 0.434660 -2.415405
v 1.365484 0.436287 -2.463947
v 1.355284 2.417214 -0.943531
v 1.355284 3.406342 -0.441617
v 1.329251 3.395783 -0.462827
v 1.339393 4.208724 -0.101067
v 1.355284 3.420347 -0.463910
v 1.355284 2.426363 -0.965668
v -1.269026 2.215670 -1.071733
v -1.242993 1.244236 -1.774812
v -1.232794 0.436287 -2.463947
v -1.269026 0.435486 -2.439055
v -1.269026 1.211799 -1.783544
v -1.222596 0.434660 -2.415405
v 1.365484 0.144647 -2.463947
v 1.313953 0.143672 -2.430892
v -1.232794 0.144647 -2.463947
v -1.269026 0.143845 -2.439055
v 1.375681 0.143019 -2.415405
v -1.242993 2.417214 -0.943531
v -1.242993 3.406342 -0.441617
v -1.269026 3.395760 -0.462838
v -1.250958 4.411518 -0.101067
v -1.242993 3.420347 -0.463910
v -1.242993 2.426363 -0.965668
v -1.222596 0.143019 -2.415405
v -0.668457 4.350648 -0.110547
v -0.688326 3.837954 0.234976
v 0.015131 3.837954 0.357694
v 0.015117 4.297132 -0.107691
v -0.688326 2.659894 0.234974
v 0.015131 2.659894 0.357692
v 0.015131 3.248924 0.518871
v -0.688326 3.248924 0.364913
v 0.718588 3.248924 0.294043
v 0.718588 2.659894 0.181631
v 1.386461 2.674793 -0.080187
v 1.386460 3.248924 -0.038647
v 0.015075 2.020328 -0.092783
v 0.719218 2.022310 -0.110774
v 1.385025 2.082433 -0.101278
v -1.356198 2.674794 -0.047314
v -1.356198 3.248924 0.009575
v -1.354821 1.958086 -0.101491
v -0.686252 1.958519 -0.111414
v -1.352029 4.404163 -0.117695
v -1.391783 3.837954 -0.036564
v 0.718588 3.837954 0.181633
v 0.718754 4.271934 -0.112970
v 1.386460 3.823055 -0.080185
v 0.683003 3.808157 0.149099
v 0.678626 4.215299 -0.130600
v 1.382263 4.190101 -0.108573
v 0.015131 3.808157 0.316254
v -0.652741 3.808157 0.199744
v -0.652740 2.689691 0.199742
v -0.652741 3.248924 0.323108
v 0.015131 3.248924 0.469278
v 0.015131 2.689691 0.316252
v 0.683003 2.689691 0.149098
v 0.683003 3.248924 0.255823
v 0.681023 2.080087 -0.128984
v -0.653350 2.019523 -0.129591
v -1.320612 3.808157 -0.058060
vt 0.239147 0.934732
vt 0.239147 0.934732
vt 0.239147 0.934732
vt 0.239147 0.934732
vt 0.239147 0.934732
vt 0.239147 0.934732
vt 0.239147 0.934732
vt 0.239147 0.934732
vt 0.239147 0.934732
vt 0.239147 0.934732
vt 0.239147 0.934732
vt 0.239147 0.934732
vt 0.239147 0.934732
vt 0.239147 0.934732
vt 0.239147 0.934732
vt 0.239147 0.934732
vt 0.239147 0.934732
vt 0.239147 0.934732
vt 0.239147 0.934732
vt 0.239147 0.934732
vt 0.239147 0.934732
vt 0.239147 0.934732
vt 0.239147 0.934732
vt 0.239147 0.934732
vt 0.239147 0.934732
vt 0.239147 0.934732
vt 0.239147 0.934732
vt 0.239147 0.934732
vt 0.239147 0.934732
vt 0.239147 0.934732
vt 0.239147 0.934732
vt 0.239147 0.934732
vt 0.239147 0.934732
vt 0.239147 0.934732
vt 0.239147 0.934732
vt 0.239147 0.934732
vt 0.239147 0.934732
vt 0.239147 0.934732
vt 0.239146 0.934732
vt 0.239147 0.934732
vt 0.239147 0.934732
vt 0.239147 0.934732
vt 0.239147 0.934732
vt 0.239147 0.934732
vt 0.239147 0.934732
vt 0.239147 0.934732
vt 0.239147 0.934732
vt 0.239147 0.934732
vt 0.239147 0.934732
vt 0.239147 0.934732
vt 0.239147 0.934732
vt 0.239147 0.934732
vt 0.239147 0.934732
vt 0.239147 0.934732
vt 0.239147 0.934732
vt 0.239147 0.934732
vt 0.239147 0.934732
vt 0.239147 0.934732
vt 0.239147 0.934732
vt 0.239147 0.934732
vt 0.239147 0.934732
vt 0.239147 0.934732
vt 0.239147 0.934732
vt 0.239147 0.934732
vt 0.239146 0.934732
vt 0.239147 0.934732
vt 0.239147 0.934732
vt 0.239147 0.934732
vn -0.9817 -0.1101 0.1552
vn 0.0141 -0.6303 0.7762
vn 0.9639 0.1797 -0.1965
vn -0.5720 -0.3739 0.7301
vn -0.5044 -0.3458 0.7912
vn 0.4129 -0.5267 0.7430
vn 1.0000 0.0032 0.0018
vn 0.9999 0.0124 0.0082
vn 1.0000 0.0000 0.0000
vn 0.9998 0.0156 0.0098
vn -0.2517 0.4403 -0.8619
vn -0.3917 0.3781 -0.8388
vn 0.5010 0.5396 -0.6766
vn -0.7707 0.3599 -0.5258
vn -1.0000 0.0000 0.0000
vn -0.0694 -0.6318 0.7720
vn 0.9639 0.1798 -0.1965
vn -0.5399 0.0000 -0.8417
vn -0.5663 0.0000 -0.8242
vn -0.2433 0.0000 0.9699
vn -0.5721 -0.3738 0.7301
vn -0.5382 -0.2743 0.7970
vn 0.4128 -0.5267 0.7431
vn 1.0000 -0.0017 -0.0012
vn 1.0000 0.0083 0.0051
vn 1.0000 0.0065 0.0041
vn -0.3395 0.3209 -0.8842
vn -0.7706 0.3599 -0.5259
vn 0.2999 0.5916 -0.7484
vn -0.4539 0.0000 0.8911
vn 0.9786 0.0000 -0.2056
vn -0.0447 0.6406 0.7666
vn -0.1875 -0.2356 0.9536
vn 0.4048 -0.1200 0.9065
vn 0.2674 -0.2180 0.9386
vn 0.1190 -0.4992 0.8583
vn 0.1935 -0.2424 0.9507
vn -0.4276 -0.1434 0.8925
vn -0.1952 -0.2670 0.9437
vn -0.0639 -0.5099 0.8579
vn -0.1692 0.3705 0.9133
vn -0.4126 0.1224 0.9026
vn -0.1875 0.2356 0.9536
vn 0.1091 0.6442 0.7571
vn 0.2674 0.2180 0.9386
vn 0.4048 0.1200 0.9065
vn -0.1382 -0.3675 -0.9197
vn 0.0490 -0.5787 -0.8141
vn 0.1875 0.2356 -0.9536
vn -0.3452 0.1217 -0.9306
vn -0.2674 0.2180 -0.9386
vn -0.1537 0.4678 -0.8704
vn -0.1355 0.2397 -0.9613
vn 0.3648 0.1462 -0.9195
vn 0.1345 0.2642 -0.9551
vn 0.0997 0.4803 -0.8714
vn 0.1723 -0.2979 -0.9389
vn 0.3792 -0.1675 -0.9101
vn 0.1875 -0.2356 -0.9536
vn -0.1485 -0.6112 -0.7774
vn -0.2674 -0.2180 -0.9386
vn -0.3452 -0.1217 -0.9306
vn 0.0398 0.2712 -0.9617
vn 0.2022 0.3671 0.9079
vn 0.0387 -0.2770 -0.9601
vn -0.3297 -0.1112 -0.9375
vn -0.0141 -0.2786 -0.9603
vn -0.3235 -0.0933 -0.9416
vn 0.0526 -0.3111 -0.9489
vn -0.0234 -0.3145 -0.9490
vn 0.0034 0.2950 -0.9555
usemtl Texture
s 1
f 1/1/1 2/2/1 3/3/1
f 4/4/2 1/1/2 3/3/2 5/5/2
f 4/4/3 5/5/3 6/6/3
f 7/7/4 8/8/4 9/9/4 2/2/4
f 10/10/5 9/9/5 8/8/5
f 4/4/6 7/7/6 2/2/6 1/1/6
f 11/11/7 8/8/8 7/7/9 12/12/9
f 10/10/10 8/8/8 11/11/7
f 9/9/11 11/11/11 12/12/11 2/2/11
f 10/10/12 11/11/12 9/9/12
f 13/13/13 14/14/13 15/15/13 16/16/13
f 12/12/14 4/4/14 2/2/14
f 17/17/15 13/13/15 16/16/15
f 14/14/16 17/17/16 16/16/16 18/18/16
f 14/14/17 18/18/17 15/15/17
f 3/3/18 6/6/18 19/19/18 20/20/18
f 16/16/19 15/15/19 21/21/19 22/22/19
f 5/5/20 3/3/20 20/20/20 23/23/20
f 24/24/21 25/25/21 26/26/21 13/13/21
f 27/27/22 26/26/22 25/25/22
f 14/14/23 24/24/23 13/13/23 17/17/23
f 28/28/24 25/25/25 24/24/9 29/29/9
f 27/27/26 25/25/25 28/28/24
f 26/26/11 28/28/11 29/29/11 13/13/11
f 27/27/27 28/28/27 26/26/27
f 29/29/28 14/14/28 13/13/28
f 2/2/29 4/4/29 6/6/29 3/3/29
f 18/18/30 16/16/30 22/22/30 30/30/30
f 12/12/9 7/7/9 4/4/9
f 6/6/31 5/5/31 23/23/31 19/19/31
f 15/15/31 18/18/31 30/30/31 21/21/31
f 29/29/9 24/24/9 14/14/9
f 31/31/32 32/32/32 33/33/32 34/34/32
f 35/35/33 36/36/33 37/37/33 38/38/33
f 39/39/34 40/40/34 41/41/34 42/42/34
f 37/37/35 36/36/35 40/40/35 39/39/35
f 36/36/36 43/43/36 44/44/36 40/40/36
f 40/40/37 44/44/37 45/45/37 41/41/37
f 46/46/38 35/35/38 38/38/38 47/47/38
f 48/48/39 49/49/39 35/35/39 46/46/39
f 49/49/40 43/43/40 36/36/40 35/35/40
f 50/50/41 51/51/41 32/32/41 31/31/41
f 51/51/42 47/47/42 38/38/42 32/32/42
f 32/32/43 38/38/43 37/37/43 33/33/43
f 33/33/44 52/52/44 53/53/44 34/34/44
f 37/37/45 39/39/45 52/52/45 33/33/45
f 39/39/46 42/42/46 54/54/46 52/52/46
f 55/55/47 56/56/47 57/57/47 54/54/47
f 58/58/48 59/59/48 31/31/48 34/34/48
f 60/60/49 61/61/49 62/62/49 63/63/49
f 41/41/50 64/64/50 65/65/50 42/42/50
f 64/64/51 63/63/51 62/62/51 65/65/51
f 66/66/52 43/43/52 63/63/52 64/64/52
f 45/45/53 66/66/53 64/64/53 41/41/53
f 46/46/54 47/47/54 61/61/54 60/60/54
f 48/48/55 46/46/55 60/60/55 67/67/55
f 67/67/56 60/60/56 63/63/56 43/43/56
f 59/59/57 68/68/57 50/50/57 31/31/57
f 61/61/58 47/47/58 68/68/58 59/59/58
f 62/62/59 61/61/59 59/59/59 58/58/59
f 58/58/60 34/34/60 56/56/60 55/55/60
f 62/62/61 58/58/61 55/55/61 65/65/61
f 65/65/62 55/55/62 54/54/62 42/42/62
f 57/57/63 56/56/63 53/53/63
f 52/52/64 54/54/64 57/57/64 53/53/64
f 44/44/65 66/66/65 45/45/65
f 50/50/66 68/68/66 51/51/66
f 48/48/67 67/67/67 49/49/67
f 51/51/68 68/68/68 47/47/68
f 49/49/69 67/67/69 43/43/69
f 44/44/70 43/43/70 66/66/70
f 53/53/71 56/56/71 34/34/71
o Raft_Cylinder
v -1.950057 0.370609 -0.420313
v 1.891733 0.370609 -0.410701
v 1.891733 0.267691 -0.410701
v -1.950057 0.267691 -0.420313
v 1.866100 0.370609 0.307228
v 1.866100 0.267691 0.307228
v -1.950057 0.370609 0.307228
v -1.950057 0.267691 0.307228
v 2.038639 0.375294 -0.457925
v 2.038639 0.375261 -1.284149
v -2.122596 0.375261 -1.284149
v -2.122596 0.375294 -0.457925
v -2.122596 0.263070 -0.457925
v -2.122596 0.263037 -1.284149
v 2.038639 0.263037 -1.284149
v 2.038639 0.263070 -0.457925
v -1.955005 0.268692 -1.290825
v -1.954953 0.371610 -1.290828
v -1.856372 0.371587 -2.123948
v -1.856423 0.268669 -2.123945
v 1.939333 0.369608 -2.104356
v 1.939282 0.266690 -2.104354
v 1.993932 0.369631 -1.352524
v 1.993881 0.266713 -1.352522
v -1.243767 0.417792 -2.022460
v -1.243767 0.203621 -2.022460
v -1.243767 0.417792 2.013887
v -1.243767 0.203621 2.013888
v -1.454902 0.417792 -2.022460
v -1.454902 0.203621 -2.022460
v -1.454902 0.417792 2.013887
v -1.454902 0.203621 2.013888
v -2.040503 0.267691 1.203364
v -2.040503 0.370609 1.203365
v -2.050895 0.370609 0.335554
v -2.050895 0.267691 0.335554
v 1.940163 0.370609 0.334595
v 1.940163 0.267691 0.334595
v 1.886227 0.370609 1.093260
v 1.886227 0.267691 1.093260
v -2.077039 0.263751 2.076680
v -2.077039 0.374548 2.076680
v -2.111668 0.374548 1.242424
v -2.111668 0.263752 1.242424
v 1.969213 0.391717 1.121631
v 1.969213 0.246583 1.121630
v 2.035559 0.391717 2.011577
v 2.035559 0.246583 2.011577
v 1.329920 0.251385 -2.552498
v 1.329920 0.341428 -2.467237
v 1.624400 0.241426 -2.467238
v 1.564006 0.171892 -2.552498
v 1.646020 0.009570 -2.553193
v 1.746378 0.000000 -2.467240
v 1.505754 -0.172005 -2.551857
v 1.560942 -0.241426 -2.469485
v 1.326126 -0.250103 -2.553633
v 1.329920 -0.341428 -2.467232
v 1.095835 -0.171891 -2.552498
v 1.035440 -0.241426 -2.467234
v 1.008989 0.000000 -2.552498
v 0.913463 0.000000 -2.467235
v 1.095835 0.171892 -2.552498
v 1.035440 0.241426 -2.467236
v -1.329920 0.244068 -2.552498
v -1.329920 0.341428 -2.460309
v -1.559098 0.166242 -2.552498
v -1.624400 0.241426 -2.460309
v -1.643090 0.000000 -2.552498
v -1.746378 0.000000 -2.460309
v -1.559098 -0.166241 -2.552498
v -1.624400 -0.241426 -2.460309
v -1.329920 -0.244068 -2.552498
v -1.329920 -0.341428 -2.460309
v -1.100742 -0.166241 -2.552498
v -1.035440 -0.241426 -2.460309
v -1.016751 0.000000 -2.552498
v -0.913463 0.000000 -2.460309
v -1.100742 0.166242 -2.552498
v -1.035440 0.241426 -2.460309
v -1.624400 0.241426 2.403079
v -1.561897 0.169463 2.491317
v -1.329920 0.341428 2.403079
v -1.329920 0.248240 2.491317
v -1.746378 -0.000000 2.403079
v -1.647516 -0.000000 2.491317
v -1.624400 -0.241426 2.403079
v -1.561897 -0.169464 2.491317
v -1.329920 -0.341428 2.403079
v -1.329920 -0.248241 2.491317
v -1.035440 -0.241426 2.403079
v -1.097943 -0.169464 2.491317
v -0.913463 -0.000000 2.403079
v -1.012324 -0.000000 2.491317
v -1.097943 0.169463 2.491317
v -1.035440 0.241426 2.403079
v 1.329920 0.341428 2.378989
v 1.329920 0.222800 2.491317
v 1.624400 0.241426 2.378988
v 1.544833 0.149818 2.491317
v 1.620527 -0.000000 2.491317
v 1.746378 -0.000000 2.378987
v 1.622904 -0.241426 2.378994
v 1.544833 -0.149818 2.491317
v 1.329920 -0.222801 2.491317
v 1.329920 -0.341428 2.378992
v 1.115007 -0.149818 2.491317
v 1.035440 -0.241426 2.378991
v 1.039313 -0.000000 2.491317
v 0.913463 -0.000000 2.378990
v 1.115007 0.149818 2.491317
v 1.035440 0.241426 2.378989
v 1.239359 0.205472 2.013212
v 1.239359 0.416807 2.013212
v 1.239359 0.205472 -2.030281
v 1.239359 0.416807 -2.030281
v 1.456946 0.205472 2.013212
v 1.456946 0.416807 2.013212
v 1.456946 0.205472 -2.030281
v 1.456946 0.416807 -2.030281
vt 0.155768 0.805160
vt 0.155768 0.805160
vt 0.155768 0.805160
vt 0.155768 0.805160
vt 0.155768 0.805160
vt 0.155768 0.805160
vt 0.155768 0.805160
vt 0.155768 0.805160
vt 0.155768 0.805160
vt 0.155768 0.805160
vt 0.155768 0.805160
vt 0.155768 0.805160
vt 0.155768 0.805160
vt 0.155768 0.805160
vt 0.155768 0.805160
vt 0.155768 0.805160
vt 0.463496 0.943255
vt 0.463496 0.943255
vt 0.463496 0.943255
vt 0.463496 0.943255
vt 0.463496 0.943255
vt 0.463496 0.943255
vt 0.463496 0.943255
vt 0.463496 0.943255
vt 0.463496 0.943255
vt 0.463496 0.943255
vt 0.463496 0.943255
vt 0.463496 0.943255
vt 0.463496 0.943255
vt 0.463496 0.943255
vt 0.463496 0.943255
vt 0.463496 0.943255
vt 0.463496 0.943255
vt 0.463496 0.943255
vt 0.463496 0.943255
vt 0.463496 0.943255
vt 0.463496 0.943255
vt 0.463496 0.943255
vt 0.463496 0.943255
vt 0.463496 0.943255
vt 0.447888 0.967373
vt 0.447888 0.967373
vt 0.447888 0.967373
vt 0.447888 0.967373
vt 0.447888 0.967373
vt 0.447888 0.967373
vt 0.447888 0.967373
vt 0.447888 0.967373
vt 0.447888 0.967373
vt 0.447888 0.967373
vt 0.447888 0.967373
vt 0.447888 0.967373
vt 0.447888 0.967373
vt 0.447888 0.967373
vt 0.447888 0.967373
vt 0.447888 0.967373
vt 0.447888 0.967373
vt 0.447888 0.967373
vt 0.447888 0.967373
vt 0.447888 0.967373
vt 0.447888 0.967373
vt 0.447888 0.967373
vt 0.447888 0.967373
vt 0.447888 0.967373
vt 0.447888 0.967373
vt 0.447888 0.967373
vt 0.447888 0.967373
vt 0.447888 0.967373
vt 0.447888 0.967373
vt 0.447888 0.967373
vt 0.447888 0.967373
vt 0.447888 0.967373
vt 0.447888 0.967373
vt 0.447888 0.967373
vt 0.447888 0.967373
vt 0.447888 0.967373
vt 0.447888 0.967373
vt 0.447888 0.967373
vt 0.463496 0.943255
vt 0.463496 0.943255
vt 0.463496 0.943255
vt 0.463496 0.943255
vt 0.463496 0.943255
vt 0.463496 0.943255
vt 0.463496 0.943255
vt 0.463496 0.943255
vt 0.463496 0.943255
vt 0.463496 0.943255
vt 0.463496 0.943255
vt 0.463496 0.943255
vt 0.463496 0.943255
vt 0.463496 0.943255
vt 0.463496 0.943255
vt 0.463496 0.943255
vt 0.447888 0.967373
vt 0.447888 0.967373
vt 0.447888 0.967373
vt 0.447888 0.967373
vt 0.447888 0.967373
vt 0.447888 0.967373
vt 0.447888 0.967373
vt 0.447888 0.967373
vt 0.447888 0.967373
vt 0.447888 0.967373
vt 0.447888 0.967373
vt 0.447888 0.967373
vt 0.447888 0.967373
vt 0.447888 0.967373
vt 0.447888 0.967373
vt 0.447888 0.967373
vt 0.447888 0.967373
vt 0.447888 0.967373
vt 0.447888 0.967373
vt 0.447888 0.967373
vt 0.447888 0.967373
vt 0.447888 0.967373
vt 0.447888 0.967373
vt 0.447888 0.967373
vt 0.447888 0.967373
vt 0.447888 0.967373
vn 0.0000 1.0000 0.0000
vn 0.0000 -1.0000 0.0000
vn 0.0000 0.0000 1.0000
vn 1.0000 -0.0000 0.0000
vn 0.0000 -0.0000 -1.0000
vn -1.0000 -0.0000 0.0000
vn 0.0025 0.0000 -1.0000
vn 0.9994 0.0000 0.0357
vn -0.9931 0.0005 -0.1175
vn 0.0052 -0.0000 -1.0000
vn 0.9974 -0.0005 -0.0724
vn 0.0156 0.0000 0.9999
vn -0.0005 -1.0000 0.0000
vn 0.0005 1.0000 -0.0000
vn -0.0002 0.0007 -1.0000
vn 0.3566 -0.9343 -0.0023
vn -0.3216 -0.9469 -0.0000
vn -0.8926 -0.4509 -0.0000
vn -0.8926 0.4509 0.0000
vn 0.8925 0.4510 0.0000
vn -0.8925 -0.4510 -0.0000
vn 0.3216 -0.9469 -0.0000
vn 0.8926 -0.4509 -0.0000
vn 0.8926 0.4509 0.0000
vn -0.3216 0.9469 0.0000
vn -0.9999 -0.0000 0.0120
vn -0.0002 0.0000 -1.0000
vn 0.9975 0.0000 0.0709
vn 0.0280 -0.0000 0.9996
vn -0.9991 -0.0000 0.0415
vn -0.0296 0.0000 -0.9996
vn 0.9972 0.0000 -0.0743
vn 0.0158 0.0000 0.9999
vn -0.0042 -1.0000 0.0002
vn -0.0042 1.0000 0.0002
vn 0.3216 0.9469 0.0000
vn 0.8424 -0.5389 -0.0054
vn -0.8925 0.4510 0.0000
vn -0.0000 0.6876 -0.7261
vn 0.4459 0.5137 -0.7330
vn 0.4460 0.5136 -0.7330
vn -0.4455 0.5129 -0.7338
vn 0.6408 -0.0566 -0.7656
vn 0.6407 -0.0570 -0.7656
vn 0.4246 -0.5436 -0.7240
vn 0.4233 -0.5447 -0.7240
vn 0.0250 -0.6805 -0.7323
vn 0.0253 -0.6805 -0.7323
vn -0.4466 -0.5138 -0.7325
vn -0.4464 -0.5139 -0.7325
vn -0.6659 -0.0000 -0.7460
vn -0.6659 0.0000 -0.7461
vn -0.4455 -0.5129 -0.7338
vn 0.0000 -0.6876 -0.7261
vn 0.4455 -0.5129 -0.7338
vn 0.6659 0.0000 -0.7461
vn 0.4455 0.5129 -0.7338
vn 0.0000 0.6876 0.7261
vn 0.4455 0.5129 0.7338
vn -0.4455 0.5129 0.7338
vn -0.6659 0.0000 0.7461
vn -0.4455 -0.5129 0.7338
vn -0.0000 -0.6876 0.7261
vn 0.4455 -0.5129 0.7338
vn 0.6659 -0.0000 0.7461
vn 0.6667 -0.0015 0.7453
vn 0.6667 -0.0010 0.7453
vn 0.4470 -0.5139 0.7322
vn 0.0004 -0.6879 0.7258
vn 0.0003 -0.6879 0.7258
vn 0.4454 -0.5153 0.7322
usemtl Texture
s off
f 93/69/72 97/70/72 99/71/72 95/72/72
f 98/73/73 94/74/73 96/75/73 100/76/73
f 96/75/74 95/72/74 99/71/74 100/76/74
f 94/74/75 93/69/75 95/72/75 96/75/75
f 98/73/76 97/70/76 93/69/76 94/74/76
f 100/76/77 99/71/77 97/70/77 98/73/77
f 181/77/77 182/78/77 184/79/77 183/80/77
f 183/80/76 184/79/76 188/81/76 187/82/76
f 187/82/75 188/81/75 186/83/75 185/84/75
f 185/84/74 186/83/74 182/78/74 181/77/74
f 183/80/73 187/82/73 185/84/73 181/77/73
f 188/81/72 184/79/72 182/78/72 186/83/72
s 1
f 69/85/78 70/86/78 71/87/78 72/88/78
f 70/86/79 73/89/79 74/90/79 71/87/79
f 73/89/74 75/91/74 76/92/74 74/90/74
f 76/92/73 72/88/73 71/87/73 74/90/73
f 73/89/72 70/86/72 69/85/72 75/91/72
f 77/93/72 78/94/72 79/95/72 80/96/72
f 81/97/73 82/98/73 83/99/73 84/100/73
f 77/93/74 80/96/74 81/97/74 84/100/74
f 83/99/75 78/94/75 77/93/75 84/100/75
f 79/95/76 78/94/76 83/99/76 82/98/76
f 80/96/77 79/95/77 82/98/77 81/97/77
f 85/101/80 86/102/80 87/103/80 88/104/80
f 87/103/81 89/105/81 90/106/81 88/104/81
f 89/105/82 91/107/82 92/108/82 90/106/82
f 91/107/83 86/102/83 85/101/83 92/108/83
f 85/101/84 88/104/84 90/106/84 92/108/84
f 91/107/85 89/105/85 87/103/85 86/102/85
f 117/109/86 120/110/86 121/111/86 123/112/86 125/113/86 127/114/86 129/115/86 131/116/86
f 124/117/87 171/118/87 174/119/87 126/120/87
f 126/120/88 174/119/88 176/121/88 128/122/88
f 128/122/89 176/121/89 178/123/89 130/124/89
f 130/124/90 178/123/90 180/125/90 132/126/90
f 119/127/91 167/128/91 170/129/91 122/130/91
f 138/131/92 140/132/92 155/133/92 153/134/92
f 140/132/88 142/135/88 157/136/88 155/133/88
f 142/135/93 144/137/93 159/138/93 157/136/93
f 144/137/94 146/139/94 161/140/94 159/138/94
f 146/139/95 148/141/95 164/142/95 161/140/95
f 134/143/96 136/144/96 149/145/96 151/146/96
f 101/147/97 102/148/97 103/149/97 104/150/97
f 103/149/98 105/151/98 106/152/98 104/150/98
f 105/151/99 107/153/99 108/154/99 106/152/99
f 107/153/100 102/148/100 101/147/100 108/154/100
f 101/147/73 104/150/73 106/152/73 108/154/73
f 107/153/72 105/151/72 103/149/72 102/148/72
f 109/155/101 110/156/101 111/157/101 112/158/101
f 111/157/102 113/159/102 114/160/102 112/158/102
f 113/159/103 115/161/103 116/162/103 114/160/103
f 115/161/104 110/156/104 109/155/104 116/162/104
f 109/155/105 112/158/105 114/160/105 116/162/105
f 115/161/106 113/159/106 111/157/106 110/156/106
f 148/141/107 134/143/107 151/146/107 164/142/107
f 122/130/108 170/129/108 171/118/108 124/117/108
f 136/144/109 138/131/109 153/134/109 149/145/109
f 132/126/96 180/125/96 165/163/96 118/164/96
f 76/92/77 75/91/77 69/85/77 72/88/77
f 118/164/110 119/127/111 120/110/112 117/109/110
f 117/109/110 131/116/113 132/126/113 118/164/110
f 119/127/111 122/130/114 121/111/115 120/110/112
f 122/130/114 124/117/116 123/112/117 121/111/115
f 124/117/116 126/120/118 125/113/119 123/112/117
f 126/120/118 128/122/120 127/114/121 125/113/119
f 128/122/120 130/124/122 129/115/122 127/114/121
f 130/124/122 132/126/113 131/116/113 129/115/122
f 118/164/107 165/163/107 167/128/107 119/127/107
f 133/165/110 135/166/113 136/144/113 134/143/110
f 137/167/123 139/168/124 140/132/124 138/131/123
f 139/168/124 141/169/125 142/135/125 140/132/124
f 141/169/125 143/170/126 144/137/126 142/135/125
f 143/170/126 145/171/127 146/139/127 144/137/126
f 145/171/127 147/172/128 148/141/128 146/139/127
f 134/143/110 148/141/128 147/172/128 133/165/110
f 135/166/113 137/167/123 138/131/123 136/144/113
f 133/165/76 147/172/76 145/171/76 143/170/76 141/169/76 139/168/76 137/167/76 135/166/76
f 152/173/129 163/174/130 164/142/130 151/146/129
f 150/175/131 152/173/129 151/146/129 149/145/131
f 149/145/131 153/134/132 154/176/132 150/175/131
f 153/134/132 155/133/133 156/177/133 154/176/132
f 155/133/133 157/136/134 158/178/134 156/177/133
f 157/136/134 159/138/135 160/179/135 158/178/134
f 159/138/135 161/140/136 162/180/136 160/179/135
f 161/140/136 164/142/130 163/174/130 162/180/136
f 163/174/74 152/173/74 150/175/74 154/176/74 156/177/74 158/178/74 160/179/74 162/180/74
f 168/181/130 169/182/137 170/129/138 167/128/130
f 172/183/139 173/184/140 174/119/141 171/118/142
f 173/184/140 175/185/133 176/121/133 174/119/141
f 175/185/133 177/186/132 178/123/132 176/121/133
f 177/186/132 179/187/131 180/125/131 178/123/132
f 169/182/137 172/183/139 171/118/142 170/129/138
f 166/188/129 168/181/130 167/128/130 165/163/129
f 165/163/129 180/125/131 179/187/131 166/188/129
f 168/181/74 166/188/74 179/187/74 177/186/74 175/185/74 173/184/74 172/183/74 169/182/74
o Raft_Cylinder.001
v 0.117718 0.297660 -0.318310
v -0.000032 0.297569 -0.368505
v -0.002397 4.541821 -0.307996
v 0.051221 4.541821 -0.285787
v 0.164068 0.297670 -0.202983
v 0.073430 4.541821 -0.232169
v 0.051221 4.541821 -0.178551
v 0.117718 0.297660 -0.087656
v -0.002397 4.541821 -0.156342
v -0.000032 0.297569 -0.037462
v -0.117781 0.297660 -0.087656
v -0.056015 4.541821 -0.178551
v -0.164131 0.297670 -0.202983
v -0.078224 4.541821 -0.232169
v -0.056015 4.541821 -0.285787
v -0.117781 0.297660 -0.318310
v 1.442912 4.176697 -0.099353
v -1.417682 4.411288 -0.093466
v 1.442912 4.148378 -0.087579
v 1.442912 2.084093 -0.099355
v -1.417682 1.946896 -0.093468
v 1.442912 2.055774 -0.087581
vt 0.449007 0.965819
vt 0.449007 0.965819
vt 0.449007 0.965819
vt 0.449007 0.965819
vt 0.449007 0.965819
vt 0.449007 0.965819
vt 0.449007 0.965819
vt 0.449007 0.965819
vt 0.449007 0.965819
vt 0.449007 0.965819
vt 0.449007 0.965819
vt 0.449007 0.965819
vt 0.449007 0.965819
vt 0.449007 0.965819
vt 0.449007 0.965819
vt 0.449007 0.965819
vt 0.449007 0.965819
vt 0.449007 0.965819
vt 0.449007 0.965819
vt 0.449007 0.965819
vt 0.449007 0.965819
vt 0.449007 0.965819
vn 0.3892 0.0133 -0.9211
vn 0.9265 0.0173 -0.3760
vn 0.9264 0.0225 0.3759
vn 0.3890 0.0259 0.9209
vn -0.3891 0.0255 0.9209
vn -0.9264 0.0214 0.3759
vn -0.9265 0.0163 -0.3760
vn -0.3892 0.0128 -0.9211
vn 0.0000 1.0000 -0.0000
vn -0.0000 -1.0000 -0.0000
vn 0.0334 0.3837 0.9229
vn -0.0165 0.3838 0.9232
usemtl Texture
s 1
f 189/189/143 190/190/143 191/191/143 192/192/143
f 193/193/144 189/189/144 192/192/144 194/194/144
f 193/193/145 194/194/145 195/195/145 196/196/145
f 196/196/146 195/195/146 197/197/146 198/198/146
f 199/199/147 198/198/147 197/197/147 200/200/147
f 201/201/148 199/199/148 200/200/148 202/202/148
f 201/201/149 202/202/149 203/203/149 204/204/149
f 204/204/150 203/203/150 191/191/150 190/190/150
f 192/192/151 191/191/151 203/203/151 202/202/151 200/200/151 197/197/151 195/195/151 194/194/151
f 190/190/152 189/189/152 193/193/152 196/196/152 198/198/152 199/199/152 201/201/152 204/204/152
f 205/205/153 206/206/153 207/207/153
f 208/208/154 209/209/154 210/210/154
